<svg width="38" height="39" viewBox="0 0 38 39" fill="none" xmlns="http://www.w3.org/2000/svg">
<g id="gallery-2--pages-filter-picture-pagination-image">
<path id="Union" d="M22.75 8.25C18.445 8.25 15.2783 8.39333 13.1167 8.5475C10.3667 8.74417 8.24417 10.8658 8.0475 13.6175C7.89333 15.7783 7.75 18.945 7.75 23.25C7.75 27.555 7.89333 30.7217 8.0475 32.8833C8.24417 35.6333 10.3658 37.7558 13.1175 37.9525C15.2783 38.1067 18.445 38.25 22.75 38.25C27.055 38.25 30.2217 38.1067 32.3833 37.9525C35.1333 37.7558 37.2558 35.6342 37.4525 32.8825C37.6067 30.7217 37.75 27.555 37.75 23.25C37.75 18.945 37.6067 15.7783 37.4525 13.6167C37.2558 10.8667 35.1342 8.74417 32.3825 8.5475C30.2217 8.39333 27.055 8.25 22.75 8.25Z" fill="#DBF3FF"/>
<path id="Subtract" d="M5.61667 1.0475C7.77833 0.893333 10.945 0.75 15.25 0.75C19.555 0.75 22.7217 0.893333 24.8833 1.0475C27.5617 1.23917 29.6442 3.25583 29.9333 5.90167C27.5404 5.79631 25.1453 5.74574 22.75 5.75C18.3892 5.75 15.1633 5.895 12.9392 6.05417C8.9475 6.33917 5.83917 9.4475 5.55417 13.4392C5.39583 15.6633 5.25 18.8892 5.25 23.25C5.25 26.125 5.31333 28.5058 5.40167 30.4333C2.75583 30.1442 0.739167 28.0617 0.5475 25.3833C0.393333 23.2217 0.25 20.055 0.25 15.75C0.25 11.445 0.393333 8.27833 0.5475 6.11667C0.744167 3.36667 2.865 1.24417 5.61667 1.0475Z" fill="#70D1FF"/>
<path id="Subtract_2" d="M35.1808 28.1581C34.2945 27.3486 33.3878 26.5617 32.4617 25.7981C31.2175 24.7798 29.5475 24.6189 28.1817 25.5298C27.295 26.1214 26.105 27.0006 24.5742 28.2973C22.2483 26.0831 20.6242 24.6689 19.5408 23.7823C18.2958 22.7648 16.6258 22.6031 15.26 23.5139C14.1283 24.2689 12.4992 25.4948 10.3 27.4606C10.355 29.6373 10.4467 31.3739 10.5417 32.7048C10.65 34.2156 11.785 35.3506 13.2958 35.4581C15.3933 35.6081 18.5 35.7498 22.75 35.7498C27 35.7498 30.1067 35.6081 32.205 35.4581C33.7158 35.3498 34.8508 34.2156 34.9583 32.7048C35.0433 31.5189 35.125 30.0114 35.1808 28.1581Z" fill="#70D1FF"/>
<path id="Subtract_3" d="M26.0833 16.5833C26.0833 15.6993 26.4345 14.8514 27.0597 14.2263C27.6848 13.6012 28.5326 13.25 29.4167 13.25C30.3007 13.25 31.1486 13.6012 31.7737 14.2263C32.3988 14.8514 32.75 15.6993 32.75 16.5833C32.75 17.4674 32.3988 18.3152 31.7737 18.9404C31.1486 19.5655 30.3007 19.9167 29.4167 19.9167C28.5326 19.9167 27.6848 19.5655 27.0597 18.9404C26.4345 18.3152 26.0833 17.4674 26.0833 16.5833Z" fill="#FF9876"/>
<path id="Intersect" d="M37.5967 30.4089C35.2158 28.1389 33.5617 26.6973 32.4617 25.7981C31.2175 24.7798 29.5467 24.6189 28.1817 25.5298C27.295 26.1214 26.1042 27.0006 24.5742 28.2973C22.2483 26.0831 20.6242 24.6689 19.5408 23.7823C18.2958 22.7648 16.6258 22.6031 15.26 23.5139C13.7458 24.5239 11.3425 26.3756 7.87332 29.7189C7.92332 30.9473 7.98415 31.9989 8.04832 32.8823C8.24415 35.6339 10.3658 37.7556 13.1167 37.9523C15.2783 38.1064 18.445 38.2498 22.75 38.2498C27.055 38.2498 30.2217 38.1064 32.3833 37.9523C35.1333 37.7556 37.2558 35.6339 37.4517 32.8823C37.5025 32.1689 37.5525 31.3464 37.5967 30.4089Z" fill="#84E4AE"/>
</g>
</svg>
